<svg width="32" height="32" viewBox="0 0 32 32" fill="none" xmlns="http://www.w3.org/2000/svg">
<path d="M21.3333 4H2.66667C1.19333 4 0 5.19333 0 6.66667V25.3333C0 26.8067 1.19333 28 2.66667 28H21.3333C22.8067 28 24 26.8067 24 25.3333V6.66667C24 5.19333 22.8067 4 21.3333 4ZM8 22.6667H4.636V13.3333H8V22.6667ZM6.25867 11.6227C5.23067 11.6227 4.544 10.9373 4.544 10.0227C4.544 9.108 5.22933 8.42267 6.372 8.42267C7.4 8.42267 8.08667 9.108 8.08667 10.0227C8.08667 10.9373 7.40133 11.6227 6.25867 11.6227ZM20 22.6667H16.744V17.5653C16.744 16.1547 15.876 15.8293 15.5507 15.8293C15.2253 15.8293 14.14 16.0467 14.14 17.5653C14.14 17.7827 14.14 22.6667 14.14 22.6667H10.776V13.3333H14.14V14.636C14.5733 13.876 15.4413 13.3333 17.0693 13.3333C18.6973 13.3333 20 14.636 20 17.5653V22.6667Z" fill="#998971"/>
</svg>
