<svg width="32" height="32" viewBox="0 0 32 32" fill="none" xmlns="http://www.w3.org/2000/svg">
<path d="M16.0155 2.66666C8.67413 2.66666 2.69782 8.63782 2.69515 15.9792C2.69382 18.3258 3.30846 20.6167 4.4738 22.6354L2.6665 29.3333L9.64307 27.6849C11.5884 28.7462 13.7783 29.3033 16.0077 29.3047H16.0129C23.3529 29.3047 29.3266 23.3322 29.3306 15.9922C29.3332 12.4335 27.9494 9.08764 25.4347 6.5703C22.9201 4.0543 19.5781 2.66799 16.0155 2.66666ZM16.0129 5.33332C18.8609 5.33466 21.5373 6.44505 23.5493 8.45572C25.5613 10.4691 26.6666 13.1442 26.6639 15.9896C26.6612 21.8616 21.8849 26.638 16.0103 26.638C14.2329 26.6367 12.4724 26.1904 10.9217 25.3437L10.0233 24.8542L9.03109 25.0885L6.40609 25.7083L7.04671 23.3281L7.33577 22.2604L6.78369 21.3021C5.85302 19.6914 5.36048 17.8498 5.36182 15.9792C5.36448 10.1098 10.1422 5.33332 16.0129 5.33332ZM11.3019 9.83332C11.0793 9.83332 10.7192 9.91666 10.4139 10.25C10.1086 10.582 9.24723 11.3861 9.24723 13.0234C9.24723 14.6608 10.4399 16.2435 10.6066 16.4661C10.7719 16.6875 12.9088 20.1536 16.2915 21.487C19.1022 22.595 19.673 22.3763 20.2837 22.3203C20.8944 22.2656 22.2538 21.5169 22.5311 20.7396C22.8084 19.9622 22.8091 19.2936 22.7264 19.1562C22.6437 19.0176 22.4217 18.9349 22.0884 18.7682C21.7564 18.6016 20.1203 17.7982 19.8149 17.6875C19.5096 17.5768 19.2863 17.5208 19.0649 17.8542C18.8436 18.1875 18.2075 18.9349 18.0129 19.1562C17.8182 19.3789 17.6248 19.4088 17.2915 19.2422C16.9582 19.0742 15.8864 18.7219 14.6144 17.5885C13.6251 16.7072 12.9575 15.6198 12.7629 15.2864C12.5695 14.9544 12.7446 14.7721 12.9113 14.6068C13.0606 14.4574 13.242 14.2181 13.4087 14.0234C13.574 13.8288 13.6314 13.6901 13.742 13.4687C13.8527 13.2474 13.796 13.0521 13.7134 12.8854C13.6307 12.7187 12.9833 11.0753 12.6873 10.4167C12.438 9.86332 12.1747 9.85047 11.9373 9.84114C11.744 9.83314 11.5233 9.83332 11.3019 9.83332Z" fill="white"/>
</svg>
