<svg width="32" height="32" viewBox="0 0 32 32" fill="none" xmlns="http://www.w3.org/2000/svg">
<path d="M16.0155 2.6665C8.67413 2.6665 2.69782 8.63767 2.69515 15.979C2.69382 18.3257 3.30846 20.6166 4.4738 22.6353L2.6665 29.3332L9.64307 27.6847C11.5884 28.7461 13.7783 29.3032 16.0077 29.3045H16.0129C23.3529 29.3045 29.3266 23.332 29.3306 15.992C29.3332 12.4334 27.9494 9.08748 25.4347 6.57015C22.9201 4.05415 19.5781 2.66784 16.0155 2.6665ZM16.0129 5.33317C18.8609 5.3345 21.5373 6.4449 23.5493 8.45557C25.5613 10.4689 26.6666 13.1441 26.6639 15.9894C26.6612 21.8614 21.8849 26.6379 16.0103 26.6379C14.2329 26.6365 12.4724 26.1903 10.9217 25.3436L10.0233 24.854L9.03109 25.0884L6.40609 25.7082L7.04671 23.328L7.33577 22.2603L6.78369 21.3019C5.85302 19.6913 5.36048 17.8497 5.36182 15.979C5.36448 10.1097 10.1422 5.33317 16.0129 5.33317ZM11.3019 9.83317C11.0793 9.83317 10.7192 9.9165 10.4139 10.2498C10.1086 10.5818 9.24723 11.3859 9.24723 13.0233C9.24723 14.6606 10.4399 16.2433 10.6066 16.466C10.7719 16.6873 12.9088 20.1535 16.2915 21.4868C19.1022 22.5948 19.673 22.3762 20.2837 22.3202C20.8944 22.2655 22.2538 21.5168 22.5311 20.7394C22.8084 19.9621 22.8091 19.2934 22.7264 19.1561C22.6437 19.0174 22.4217 18.9347 22.0884 18.7681C21.7564 18.6014 20.1203 17.798 19.8149 17.6873C19.5096 17.5767 19.2863 17.5207 19.0649 17.854C18.8436 18.1873 18.2075 18.9348 18.0129 19.1561C17.8182 19.3788 17.6248 19.4087 17.2915 19.242C16.9582 19.074 15.8864 18.7217 14.6144 17.5884C13.6251 16.707 12.9575 15.6196 12.7629 15.2863C12.5695 14.9543 12.7446 14.7719 12.9113 14.6066C13.0606 14.4573 13.242 14.2179 13.4087 14.0233C13.574 13.8286 13.6314 13.6899 13.742 13.4686C13.8527 13.2473 13.796 13.0519 13.7134 12.8853C13.6307 12.7186 12.9833 11.0752 12.6873 10.4165C12.438 9.86317 12.1747 9.85032 11.9373 9.84098C11.744 9.83298 11.5233 9.83317 11.3019 9.83317Z" fill="#00120C"/>
</svg>
