<svg width="80" height="80" viewBox="0 0 80 80" fill="none" xmlns="http://www.w3.org/2000/svg">
<path fill-rule="evenodd" clip-rule="evenodd" d="M8.11328 72.1717L12.6033 55.78C9.83328 50.9833 8.37661 45.54 8.37828 39.965C8.38661 22.5233 22.5799 8.33331 40.0233 8.33331C48.4883 8.33665 56.4316 11.6316 62.4066 17.61C68.3799 23.59 71.6699 31.5366 71.6666 39.99C71.6599 57.4316 57.4633 71.6233 40.0233 71.6233H40.0099C34.7149 71.6216 29.5099 70.2933 24.8883 67.7716L8.11328 72.1717Z" fill="white"/>
<path fill-rule="evenodd" clip-rule="evenodd" d="M8.11337 73.005C7.89337 73.005 7.68003 72.9183 7.5217 72.7583C7.31337 72.5467 7.2317 72.2383 7.31003 71.9533L11.7084 55.8933C8.9817 51.05 7.54337 45.55 7.5467 39.9667C7.55337 22.0633 22.1217 7.5 40.0234 7.5C48.7067 7.50333 56.865 10.885 62.9967 17.0217C69.1284 23.16 72.5034 31.3167 72.5 39.99C72.4934 57.8917 57.9234 72.4567 40.0234 72.4567C34.7084 72.455 29.45 71.1433 24.7834 68.6617L8.32503 72.9767C8.25503 72.9967 8.18503 73.005 8.11337 73.005Z" fill="white"/>
<path fill-rule="evenodd" clip-rule="evenodd" d="M40.0232 8.33335C48.4882 8.33669 56.4315 11.6317 62.4065 17.61C68.3798 23.59 71.6698 31.5367 71.6665 39.99C71.6598 57.4317 57.4632 71.6233 40.0232 71.6233H40.0098C34.7148 71.6217 29.5098 70.2933 24.8882 67.7717L8.11315 72.1717L12.6032 55.78C9.83315 50.9833 8.37649 45.54 8.37815 39.965C8.38649 22.5234 22.5798 8.33335 40.0232 8.33335ZM40.0232 6.66669C21.6632 6.66669 6.71982 21.6034 6.71149 39.965C6.70982 45.5767 8.12649 51.1067 10.8132 56.0017L6.50482 71.7333C6.34815 72.3083 6.50815 72.9217 6.92815 73.345C7.24482 73.665 7.67315 73.84 8.11315 73.84C8.25482 73.84 8.39649 73.8217 8.53649 73.785L24.6815 69.5517C29.3948 71.9983 34.6782 73.29 40.0098 73.2917C58.3832 73.2917 73.3265 58.3533 73.3348 39.9917C73.3382 31.0934 69.8765 22.7267 63.5882 16.4334C57.2965 10.1384 48.9282 6.67002 40.0232 6.66669Z" fill="#CFD8DC"/>
<path fill-rule="evenodd" clip-rule="evenodd" d="M58.6269 21.3867C53.6602 16.4167 47.0586 13.6784 40.0319 13.6767C25.5252 13.6767 13.7269 25.47 13.7202 39.9667C13.7185 44.935 15.1086 49.7717 17.7419 53.96L18.3685 54.955L15.7102 64.6567L25.6652 62.0467L26.6269 62.6167C30.6636 65.0134 35.2936 66.28 40.0136 66.2817H40.0236C54.5202 66.2817 66.3186 54.4867 66.3236 39.9884C66.3252 32.9634 63.5936 26.3567 58.6269 21.3867Z" fill="#40C351"/>
<path fill-rule="evenodd" clip-rule="evenodd" d="M32.1136 26.7417C31.5219 25.425 30.8986 25.3983 30.3336 25.375C29.8719 25.355 29.3452 25.3567 28.8186 25.3567C28.2919 25.3567 27.4352 25.555 26.7102 26.3467C25.9852 27.1383 23.9419 29.05 23.9419 32.94C23.9419 36.83 26.7752 40.59 27.1702 41.1167C27.5652 41.6433 32.6402 49.8817 40.6769 53.0517C47.3552 55.685 48.7152 55.1617 50.1652 55.03C51.6152 54.8983 54.8436 53.1183 55.5019 51.2717C56.1602 49.425 56.1602 47.8433 55.9636 47.5133C55.7652 47.1833 55.2386 46.9867 54.4486 46.59C53.6586 46.1933 49.7702 44.2817 49.0452 44.0183C48.3202 43.755 47.7936 43.6233 47.2652 44.415C46.7386 45.205 45.2236 46.9867 44.7619 47.5133C44.3002 48.0417 43.8386 48.1083 43.0486 47.7117C42.2586 47.315 39.7119 46.4817 36.6902 43.7883C34.3402 41.6933 32.7536 39.105 32.2919 38.3133C31.8302 37.5233 32.2419 37.095 32.6386 36.7C32.9936 36.345 33.4286 35.7767 33.8252 35.315C34.2202 34.8533 34.3519 34.5233 34.6152 33.9967C34.8786 33.4683 34.7469 33.0067 34.5486 32.6117C34.3536 32.215 32.8169 28.305 32.1136 26.7417Z" fill="white"/>
</svg>
